<mxfile host="app.diagrams.net" modified="2021-10-28T17:21:43.728Z" agent="5.0 (Macintosh; Intel Mac OS X 10_15_7) AppleWebKit/537.36 (KHTML, like Gecko) Chrome/92.0.4515.107 Safari/537.36" etag="MahWvbnvPcArKmstaUwr" version="15.5.0" type="github">
  <diagram id="wJDWuHTwm4FQ84Dt6kpp" name="Page-1">
    <mxGraphModel dx="775" dy="752" grid="1" gridSize="10" guides="1" tooltips="1" connect="1" arrows="1" fold="1" page="1" pageScale="1" pageWidth="850" pageHeight="1100" math="0" shadow="0">
      <root>
        <mxCell id="0" />
        <mxCell id="1" parent="0" />
        <mxCell id="OiSSpVjRdsXmr6B28M6c-26" value="" style="rounded=0;whiteSpace=wrap;html=1;fillColor=none;" vertex="1" parent="1">
          <mxGeometry x="90" y="60" width="500" height="260" as="geometry" />
        </mxCell>
        <mxCell id="OiSSpVjRdsXmr6B28M6c-1" value="5.12.3" style="rounded=0;whiteSpace=wrap;html=1;" vertex="1" parent="1">
          <mxGeometry x="120" y="80" width="80" height="60" as="geometry" />
        </mxCell>
        <mxCell id="OiSSpVjRdsXmr6B28M6c-2" value="Min: 27+&lt;br&gt;Target: 30&amp;nbsp;" style="rounded=0;whiteSpace=wrap;html=1;" vertex="1" parent="1">
          <mxGeometry x="240" y="80" width="80" height="60" as="geometry" />
        </mxCell>
        <mxCell id="OiSSpVjRdsXmr6B28M6c-3" value="March Tanmoy&#39;s:&lt;br&gt;SDK 30" style="rounded=0;whiteSpace=wrap;html=1;" vertex="1" parent="1">
          <mxGeometry x="360" y="80" width="120" height="60" as="geometry" />
        </mxCell>
        <mxCell id="OiSSpVjRdsXmr6B28M6c-4" value="6.0" style="rounded=0;whiteSpace=wrap;html=1;" vertex="1" parent="1">
          <mxGeometry x="120" y="160" width="80" height="60" as="geometry" />
        </mxCell>
        <mxCell id="OiSSpVjRdsXmr6B28M6c-5" value="Min: 27+&lt;br&gt;Target: 29&amp;nbsp;" style="rounded=0;whiteSpace=wrap;html=1;" vertex="1" parent="1">
          <mxGeometry x="240" y="160" width="80" height="60" as="geometry" />
        </mxCell>
        <mxCell id="OiSSpVjRdsXmr6B28M6c-6" value="May Tanmoy&#39;s:&lt;br&gt;30" style="rounded=0;whiteSpace=wrap;html=1;" vertex="1" parent="1">
          <mxGeometry x="360" y="160" width="120" height="60" as="geometry" />
        </mxCell>
        <mxCell id="OiSSpVjRdsXmr6B28M6c-7" value="6.5" style="rounded=0;whiteSpace=wrap;html=1;" vertex="1" parent="1">
          <mxGeometry x="120" y="240" width="80" height="60" as="geometry" />
        </mxCell>
        <mxCell id="OiSSpVjRdsXmr6B28M6c-8" value="Min: 27+&lt;br&gt;Target: 30&amp;nbsp;" style="rounded=0;whiteSpace=wrap;html=1;" vertex="1" parent="1">
          <mxGeometry x="240" y="240" width="80" height="60" as="geometry" />
        </mxCell>
        <mxCell id="OiSSpVjRdsXmr6B28M6c-9" value="October Tanmoy&#39;s:&lt;br&gt;30" style="rounded=0;whiteSpace=wrap;html=1;" vertex="1" parent="1">
          <mxGeometry x="360" y="240" width="120" height="60" as="geometry" />
        </mxCell>
        <mxCell id="OiSSpVjRdsXmr6B28M6c-10" value="" style="shape=image;html=1;verticalAlign=top;verticalLabelPosition=bottom;labelBackgroundColor=#ffffff;imageAspect=0;aspect=fixed;image=https://cdn3.iconfinder.com/data/icons/flat-actions-icons-9/792/Tick_Mark_Dark-128.png" vertex="1" parent="1">
          <mxGeometry x="520" y="90" width="40" height="40" as="geometry" />
        </mxCell>
        <mxCell id="OiSSpVjRdsXmr6B28M6c-11" value="" style="shape=image;html=1;verticalAlign=top;verticalLabelPosition=bottom;labelBackgroundColor=#ffffff;imageAspect=0;aspect=fixed;image=https://cdn3.iconfinder.com/data/icons/musthave/128/Delete.png" vertex="1" parent="1">
          <mxGeometry x="530" y="175" width="30" height="30" as="geometry" />
        </mxCell>
        <mxCell id="OiSSpVjRdsXmr6B28M6c-12" value="" style="shape=image;html=1;verticalAlign=top;verticalLabelPosition=bottom;labelBackgroundColor=#ffffff;imageAspect=0;aspect=fixed;image=https://cdn1.iconfinder.com/data/icons/gradak-interface/32/interface-65-128.png" vertex="1" parent="1">
          <mxGeometry x="300" y="280" width="40" height="40" as="geometry" />
        </mxCell>
        <mxCell id="OiSSpVjRdsXmr6B28M6c-13" value="5.12.3" style="rounded=0;whiteSpace=wrap;html=1;" vertex="1" parent="1">
          <mxGeometry x="110" y="370" width="80" height="60" as="geometry" />
        </mxCell>
        <mxCell id="OiSSpVjRdsXmr6B28M6c-14" value="Min: 27+&lt;br&gt;Target: 30&amp;nbsp;" style="rounded=0;whiteSpace=wrap;html=1;" vertex="1" parent="1">
          <mxGeometry x="230" y="370" width="80" height="60" as="geometry" />
        </mxCell>
        <mxCell id="OiSSpVjRdsXmr6B28M6c-15" value="March Tanmoy&#39;s:&lt;br&gt;SDK 30" style="rounded=0;whiteSpace=wrap;html=1;" vertex="1" parent="1">
          <mxGeometry x="350" y="370" width="120" height="60" as="geometry" />
        </mxCell>
        <mxCell id="OiSSpVjRdsXmr6B28M6c-19" value="6.5" style="rounded=0;whiteSpace=wrap;html=1;" vertex="1" parent="1">
          <mxGeometry x="110" y="450" width="80" height="60" as="geometry" />
        </mxCell>
        <mxCell id="OiSSpVjRdsXmr6B28M6c-20" value="Min: 27+&lt;br&gt;Target: 30&amp;nbsp;" style="rounded=0;whiteSpace=wrap;html=1;" vertex="1" parent="1">
          <mxGeometry x="230" y="450" width="80" height="60" as="geometry" />
        </mxCell>
        <mxCell id="OiSSpVjRdsXmr6B28M6c-21" value="October Tanmoy&#39;s:&lt;br&gt;30" style="rounded=0;whiteSpace=wrap;html=1;" vertex="1" parent="1">
          <mxGeometry x="350" y="450" width="120" height="60" as="geometry" />
        </mxCell>
        <mxCell id="OiSSpVjRdsXmr6B28M6c-22" value="" style="shape=image;html=1;verticalAlign=top;verticalLabelPosition=bottom;labelBackgroundColor=#ffffff;imageAspect=0;aspect=fixed;image=https://cdn3.iconfinder.com/data/icons/flat-actions-icons-9/792/Tick_Mark_Dark-128.png" vertex="1" parent="1">
          <mxGeometry x="510" y="380" width="40" height="40" as="geometry" />
        </mxCell>
        <mxCell id="OiSSpVjRdsXmr6B28M6c-25" value="" style="shape=image;html=1;verticalAlign=top;verticalLabelPosition=bottom;labelBackgroundColor=#ffffff;imageAspect=0;aspect=fixed;image=https://cdn0.iconfinder.com/data/icons/zondicons/20/question-128.png" vertex="1" parent="1">
          <mxGeometry x="515" y="465" width="30" height="30" as="geometry" />
        </mxCell>
        <mxCell id="OiSSpVjRdsXmr6B28M6c-27" value="" style="rounded=0;whiteSpace=wrap;html=1;fillColor=none;" vertex="1" parent="1">
          <mxGeometry x="90" y="350" width="470" height="180" as="geometry" />
        </mxCell>
        <mxCell id="OiSSpVjRdsXmr6B28M6c-28" value="&lt;div&gt;&lt;span&gt;1. Can you delete the old builds&lt;/span&gt;&lt;/div&gt;&lt;div&gt;&lt;span&gt;2. what happens to ppl using old builds&lt;/span&gt;&lt;/div&gt;&lt;div&gt;&lt;span&gt;3. should we try it out using diff license&lt;/span&gt;&lt;/div&gt;" style="text;html=1;strokeColor=none;fillColor=none;align=left;verticalAlign=top;whiteSpace=wrap;rounded=0;" vertex="1" parent="1">
          <mxGeometry x="570" y="350" width="230" height="70" as="geometry" />
        </mxCell>
      </root>
    </mxGraphModel>
  </diagram>
</mxfile>
